<svg xmlns="http://www.w3.org/2000/svg" viewBox="0 0 32 32" width="32" height="32">
    <path style="text-indent:0;text-align:start;line-height:normal;text-transform:none;block-progression:tb;-inkscape-font-specification:Bitstream Vera Sans" d="M 8.28125 5.28125 L 2.28125 11.28125 L 1.59375 12 L 2.28125 12.71875 L 8.28125 18.71875 L 9.71875 17.28125 L 5.4375 13 L 23 13 C 25.754545 13 28 15.245455 28 18 C 28 20.754545 25.754545 23 23 23 L 20 23 L 20 25 L 23 25 C 26.845455 25 30 21.845455 30 18 C 30 14.154545 26.845455 11 23 11 L 5.4375 11 L 9.71875 6.71875 L 8.28125 5.28125 z M 8 23 L 8 25 L 10 25 L 10 23 L 8 23 z M 12 23 L 12 25 L 14 25 L 14 23 L 12 23 z M 16 23 L 16 25 L 18 25 L 18 23 L 16 23 z" overflow="visible" font-family="Bitstream Vera Sans"/>
</svg>