<svg xmlns="http://www.w3.org/2000/svg" viewBox="0 0 32 32" width="32" height="32">
    <path style="text-indent:0;text-align:start;line-height:normal;text-transform:none;block-progression:tb;-inkscape-font-specification:Sans" d="M 16 5 C 12.145852 5 9 8.1458513 9 12 C 9 14.408843 10.23116 16.55212 12.09375 17.8125 C 8.5266131 19.342333 6 22.881262 6 27 L 8 27 C 8 24.109626 9.5263067 21.592958 11.8125 20.1875 C 12.483006 21.834363 14.120749 23 16 23 C 17.879251 23 19.516994 21.834363 20.1875 20.1875 C 22.473693 21.592958 24 24.109626 24 27 L 26 27 C 26 22.881262 23.473387 19.342333 19.90625 17.8125 C 21.76884 16.55212 23 14.408843 23 12 C 23 8.1458513 19.854148 5 16 5 z M 16 7 C 18.773268 7 21 9.2267317 21 12 C 21 14.773268 18.773268 17 16 17 C 13.226732 17 11 14.773268 11 12 C 11 9.2267317 13.226732 7 16 7 z M 16 19 C 16.81989 19 17.600009 19.116459 18.34375 19.34375 C 17.997935 20.307297 17.090648 21 16 21 C 14.909352 21 14.002065 20.307297 13.65625 19.34375 C 14.399991 19.116459 15.18011 19 16 19 z" overflow="visible" font-family="Sans"/>
</svg>