<svg xmlns="http://www.w3.org/2000/svg" viewBox="0 0 32 32" width="32" height="32">
    <path d="M 16 5 L 15.6875 5.28125 L 4.28125 16.8125 L 3.59375 17.5 L 4.28125 18.21875 L 13.78125 27.71875 L 14.5 28.40625 L 15.1875 27.71875 L 16.40625 26.5 C 17.46025 29.688126 20.466215 32 24 32 C 28.406433 32 32 28.406433 32 24 C 32 20.501976 29.731898 17.519896 26.59375 16.4375 L 26.71875 16.3125 L 27 16 L 27 15.59375 L 27 6 L 27 5 L 26 5 L 16.40625 5 L 16 5 z M 16.84375 7 L 25 7 L 25 15.15625 L 24.15625 16 C 24.103605 15.99897 24.052884 16 24 16 C 19.593567 16 16 19.593567 16 24 C 16 24.03173 15.999628 24.062105 16 24.09375 L 14.5 25.59375 L 6.40625 17.5 L 16.84375 7 z M 22 9 C 21.447715 9 21 9.4477153 21 10 C 21 10.552285 21.447715 11 22 11 C 22.552285 11 23 10.552285 23 10 C 23 9.4477153 22.552285 9 22 9 z M 24 18 C 27.325553 18 30 20.674447 30 24 C 30 27.325553 27.325553 30 24 30 C 20.674447 30 18 27.325553 18 24 C 18 20.674447 20.674447 18 24 18 z M 23 20 L 23 23 L 20 23 L 20 25 L 23 25 L 23 28 L 25 28 L 25 25 L 28 25 L 28 23 L 25 23 L 25 20 L 23 20 z"/>
</svg>