<svg xmlns="http://www.w3.org/2000/svg" viewBox="0 0 32 32" width="32" height="32">
    <path style="text-indent:0;text-align:start;line-height:normal;text-transform:none;block-progression:tb;-inkscape-font-specification:Sans" d="M 16 4 L 11 8 L 21 8 L 16 4 z M 8.5 5 L 5 9.65625 L 5 27 L 27 27 L 27 9.65625 L 23.5 5 L 18.5 5 L 21 7 L 22.5 7 L 24 9 L 8 9 L 9.5 7 L 11 7 L 13.5 5 L 8.5 5 z M 7 11 L 25 11 L 25 25 L 7 25 L 7 11 z M 12.8125 13 A 1.001098 1.001098 0 0 0 13 15 L 19 15 A 1.0001 1.0001 0 1 0 19 13 L 13 13 A 1.0001 1.0001 0 0 0 12.90625 13 A 1.001098 1.001098 0 0 0 12.8125 13 z" overflow="visible" font-family="Sans"/>
</svg>