<svg xmlns="http://www.w3.org/2000/svg" xmlns:xlink="http://www.w3.org/1999/xlink" viewBox="0 0 50 50" version="1.1">
	<g id="surface1">
		<path style=" " d="M 23.898438 47 C 13.65625 47 5.003906 38.355469 5.003906 28.125 L 5.003906 28 C 4.929688 23.074219 6.558594 19.714844 7.261719 18.5 C 8.621094 16.152344 10.296875 14.410156 10.8125 14.136719 C 11.566406 13.734375 12.121094 14.332031 12.363281 14.585938 C 12.832031 15.085938 12.597656 15.695313 12.507813 15.925781 C 11.613281 18.265625 10.929688 20.28125 11.003906 23.097656 C 11.097656 26.90625 12.488281 28.699219 13.085938 29.292969 C 13.460938 29.671875 13.769531 29.847656 14.015625 29.933594 C 14.054688 28.671875 14.203125 26.148438 14.773438 23.304688 C 15.113281 21.589844 16.28125 17.085938 19.6875 12.296875 C 23.714844 6.632813 28.449219 4.273438 29.214844 4.042969 C 30.570313 3.636719 33.535156 3.128906 35.957031 3.019531 C 38.53125 2.910156 39.160156 3.574219 39.921875 5.035156 L 40.046875 5.277344 C 41.820313 8.613281 45.03125 18.832031 43.65625 29.132813 C 42.011719 39.992188 34.257813 47 23.898438 47 Z M 14.648438 30 C 14.640625 30 14.632813 30 14.628906 30 L 14.652344 30 C 14.648438 30 14.648438 30 14.648438 30 Z "></path>
	</g>
</svg>