<svg xmlns="http://www.w3.org/2000/svg" x="0px" y="0px"
     width="48" height="48"
     viewBox="0 0 24 24"
     style=" fill:#000000;">    <path d="M 4 4 C 2.9 4 2 4.9 2 6 L 2 10 C 3.1 10 4 10.9 4 12 C 4 13.1 3.1 14 2 14 L 2 18 C 2 19.1 2.9 20 4 20 L 20 20 C 21.1 20 22 19.1 22 18 L 22 14 C 20.9 14 20 13.1 20 12 C 20 10.9 20.9 10 22 10 L 22 6 C 22 4.9 21.1 4 20 4 L 4 4 z M 4 6 L 20 6 L 20 8.5371094 C 18.805 9.2301094 18 10.523 18 12 C 18 13.477 18.805 14.770891 20 15.462891 L 20 18 L 4 18 L 4 15.462891 C 5.195 14.770891 6 13.478 6 12 C 6 10.522 5.195 9.2291094 4 8.5371094 L 4 6 z M 11 8 L 11 11 L 8 11 L 8 13 L 11 13 L 11 16 L 13 16 L 13 13 L 16 13 L 16 11 L 13 11 L 13 8 L 11 8 z"></path></svg>