<svg xmlns="http://www.w3.org/2000/svg" xmlns:xlink="http://www.w3.org/1999/xlink" viewBox="0 0 32 32" version="1.1">
	<g id="surface1">
		<path style=" " d="M 4 5 L 4 27 L 13 27 L 13 25 L 6 25 L 6 13 L 26 13 L 26 25 L 19 25 L 19 27 L 28 27 L 28 5 Z M 6 7 L 26 7 L 26 11 L 6 11 Z M 8 8 C 7.449219 8 7 8.449219 7 9 C 7 9.550781 7.449219 10 8 10 C 8.550781 10 9 9.550781 9 9 C 9 8.449219 8.550781 8 8 8 Z M 11 8 C 10.449219 8 10 8.449219 10 9 C 10 9.550781 10.449219 10 11 10 C 11.550781 10 12 9.550781 12 9 C 12 8.449219 11.550781 8 11 8 Z M 13 8 L 13 10 L 24 10 L 24 8 Z M 16 16.59375 L 15.28125 17.28125 L 11.78125 20.78125 L 13.21875 22.21875 L 15 20.4375 L 15 28 C 15 28.566406 14.566406 29 14 29 L 12 29 L 12 31 L 14 31 C 15.644531 31 17 29.644531 17 28 L 17 20.4375 L 18.78125 22.21875 L 20.21875 20.78125 L 16.71875 17.28125 Z "></path>
	</g>
</svg>