<svg xmlns="http://www.w3.org/2000/svg" width="300" height="300" viewBox="0 0 300 300" xmlns:xlink="http://www.w3.org/1999/xlink">
  <defs>
    <polygon id="a" points=".018 300 300 300 300 .012 .018 .012"/>
    <polygon id="c" points="195.376 .012 .018 .012 .018 230.507 195.376 230.507 195.376 .012"/>
    <polygon id="e" points=".018 .259 .018 40.346 133.435 40.346 133.435 .259 .018 .259"/>
    <polygon id="g" points="177.235 .012 .201 .012 .201 67.999 177.235 67.999 177.235 .012"/>
    <polygon id="i" points=".025 .012 .025 207.206 96.139 207.206 96.139 .012"/>
  </defs>
  <g fill="none" fill-rule="evenodd">
    <mask id="b" fill="white">
      <use xlink:href="#a"/>
    </mask>
    <path fill="#000000" fill-opacity=".15" d="M31.8075,46.0224 L42.297,46.0224 L42.297,35.5329 L31.8075,35.5329 L31.8075,46.0224 Z M29.4075,48.4224 L44.697,48.4224 L44.697,33.1329 L29.4075,33.1329 L29.4075,48.4224 Z" mask="url(#b)"/>
    <polyline fill="#000000" fill-opacity=".15" points="7.645 142.355 0 142.355 0 144.755 5.245 144.755 5.245 155.245 0 155.245 0 157.645 7.645 157.645 7.645 142.355" mask="url(#b)"/>
    <path fill="#000000" fill-opacity=".15" d="M80.1042,258.8355 L90.5934,258.8355 L90.5934,248.346 L80.1042,248.346 L80.1042,258.8355 Z M77.7042,261.2355 L92.9934,261.2355 L92.9934,245.946 L77.7042,245.946 L77.7042,261.2355 Z" mask="url(#b)"/>
    <polyline fill="#000000" fill-opacity=".15" points="268.328 7.645 268.328 0 265.928 0 265.928 5.245 255.439 5.245 255.439 0 253.039 0 253.039 7.645 268.328 7.645" mask="url(#b)"/>
    <path fill="#000000" fill-opacity=".15" d="M63.8013 122.3823C60.0966 122.3823 57.0828 119.3685 57.0828 115.6638 57.0828 111.9594 60.0966 108.9453 63.8013 108.9453 67.506 108.9453 70.5198 111.9594 70.5198 115.6638 70.5198 119.3685 67.506 122.3823 63.8013 122.3823zM63.8013 106.5453C58.7733 106.5453 54.6828 110.6361 54.6828 115.6638 54.6828 120.6918 58.7733 124.7823 63.8013 124.7823 68.8293 124.7823 72.9198 120.6918 72.9198 115.6638 72.9198 110.6361 68.8293 106.5453 63.8013 106.5453L63.8013 106.5453zM233.3583 178.3944C229.6542 178.3944 226.6401 175.3806 226.6401 171.6759 226.6401 167.9712 229.6542 164.9571 233.3583 164.9571 237.0633 164.9571 240.0771 167.9712 240.0771 171.6759 240.0771 175.3806 237.0633 178.3944 233.3583 178.3944zM233.3583 162.5571C228.3306 162.5571 224.2401 166.6479 224.2401 171.6759 224.2401 176.7039 228.3306 180.7944 233.3583 180.7944 238.3863 180.7944 242.4771 176.7039 242.4771 171.6759 242.4771 166.6479 238.3863 162.5571 233.3583 162.5571L233.3583 162.5571z"/>
    <mask id="d" fill="white">
      <use xlink:href="#c"/>
    </mask>
    <path fill="#000000" fill-opacity=".15" d="M173.6649,85.0917 C169.9602,85.0917 166.9464,82.0776 166.9464,78.3732 C166.9464,74.6685 169.9602,71.6547 173.6649,71.6547 C177.3693,71.6547 180.3831,74.6685 180.3831,78.3732 C180.3831,82.0776 177.3693,85.0917 173.6649,85.0917 Z M173.6649,69.2547 C168.6369,69.2547 164.5464,73.3452 164.5464,78.3732 C164.5464,83.4009 168.6369,87.4917 173.6649,87.4917 C178.6929,87.4917 182.7831,83.4009 182.7831,78.3732 C182.7831,73.3452 178.6929,69.2547 173.6649,69.2547 L173.6649,69.2547 Z" mask="url(#d)"/>
    <polyline fill="#000000" fill-opacity=".15" points="179.077 5.687 179.554 19.671 165.741 19.223 166.188 33.237 152.405 32.79 152.492 48.422 154.892 48.409 154.819 35.269 168.668 35.719 168.221 21.704 182.04 22.153 181.563 8.169 195.376 8.618 195.101 0 192.7 0 192.895 6.136 179.077 5.687" mask="url(#d)"/>
    <polyline fill="#000000" fill-opacity=".15" points="14.918 219.697 24.061 230.069 33.919 220.139 43.057 230.507 52.993 220.542 62.066 230.041 63.801 228.383 53.03 217.106 43.165 227 34.023 216.628 24.165 226.557 15.026 216.19 5.125 226.119 0 220.304 0 223.934 5.017 229.625 14.918 219.697" mask="url(#d)"/>
    <path fill="#000000" fill-opacity=".15" d="M259.2312 95.8668C257.3493 94.2504 255.2172 92.4177 252.6153 93.8907 249.861 95.4507 250.143 98.7507 250.3923 101.6625 250.6539 104.724 250.7049 106.644 249.2076 107.4921 247.7919 108.2937 246.3267 107.2746 244.0824 105.4992 241.8594 103.7403 239.0925 101.5503 236.043 103.2777 233.0043 104.9991 233.3814 108.5397 233.6847 111.3849 233.9913 114.2601 234.0759 116.0631 232.6728 116.8578 231.1764 117.705 229.452 116.5875 226.992 114.7842 224.6907 113.0973 222.0831 111.1851 219.5079 112.6434 216.9156 114.1119 217.0806 117.4971 217.2264 120.4839 217.3512 123.0477 217.4691 125.4693 216.1002 126.2448 214.9467 126.8985 213.5343 125.937 211.3452 124.2774 208.9878 122.49 206.0547 120.2649 202.9347 122.031 200.0235 123.6798 200.4345 126.7407 200.7969 129.4413 201.2217 132.6051 201.318 134.6181 199.0734 135.8892L200.2563 137.9775C204.0744 135.8148 203.5761 132.1038 203.1759 129.1218 202.788 126.234 202.7601 124.8882 204.1179 124.119 205.743 123.198 207.3852 124.2867 209.8953 126.1899 212.1342 127.8876 214.6719 129.8124 217.2831 128.3331 219.9384 126.8292 219.771 123.396 219.6234 120.3672 219.5007 117.8496 219.3846 115.4715 220.6911 114.7317 221.8293 114.0864 223.3635 115.1001 225.5727 116.7198 227.9445 118.4586 230.8965 120.6222 233.8557 118.9461 236.7306 117.3177 236.3802 114.0306 236.0709 111.1305 235.7517 108.132 235.6695 106.2474 237.2259 105.366 238.7577 104.4975 240.2763 105.5478 242.5932 107.3814 244.7643 109.0992 247.4661 111.2376 250.3908 109.5804 253.335 107.9124 253.0422 104.4834 252.7833 101.4579 252.5346 98.5473 252.4788 96.7263 253.7982 95.979 254.8281 95.3952 255.723 96.0171 257.6676 97.6875 259.968 99.6639 263.1183 102.3702 267.6432 99.8079L266.4603 97.7196C263.61 99.3339 261.828 98.097 259.2312 95.8668M166.4631 193.1835C164.0856 191.0529 162.7062 189.5841 163.5876 187.1601L161.3322 186.3396C159.8316 190.4637 162.6204 192.9624 164.8608 194.9706 167.0307 196.9158 167.9244 197.922 167.3925 199.3875 166.7535 201.1437 164.7978 201.3813 161.6535 201.5634 158.8482 201.7257 155.6682 201.9099 154.6428 204.7293 153.5997 207.5967 155.9556 210.0996 158.0343 212.3073 159.7623 214.143 161.3931 215.877 160.8807 217.287 160.4334 218.5176 158.6088 218.742 155.877 218.9445 152.9439 219.1617 149.2941 219.432 148.1313 222.6282 147.0021 225.7323 149.4027 228.0057 151.5204 230.0109 153.7101 232.0842 154.9953 233.4645 154.3848 235.1451 153.7821 236.8011 151.9458 236.9874 148.9935 237.0972 146.2272 237.1998 142.7838 237.3279 141.6351 240.4866 140.4783 243.6657 142.9275 246.084 145.0884 248.2179 147.168 250.2702 148.3929 251.6202 147.8736 253.0443 147.4689 254.1573 146.3844 254.2647 143.8212 254.2563 140.7882 254.247 136.6338 254.2338 134.8566 259.1196L137.112 259.9404C138.2322 256.8615 140.391 256.6455 143.8137 256.6569 146.2947 256.6644 149.1072 256.6734 150.129 253.8648 151.2111 250.8897 148.854 248.5629 146.7747 246.5097 144.5877 244.3509 143.3025 242.9238 143.8908 241.3068 144.447 239.7768 146.2233 239.6019 149.0826 239.4954 151.9158 239.3901 155.442 239.259 156.6402 235.9659 157.8339 232.6824 155.2485 230.2353 153.1701 228.2682 151.0704 226.2804 149.8353 224.9643 150.3867 223.4484 150.975 221.8314 153.0126 221.5629 156.0543 221.3376 158.8995 221.127 162.1248 220.8882 163.1364 218.1075 164.1555 215.3079 161.832 212.8398 159.7818 210.6624 158.022 208.7931 156.3606 207.0282 156.8982 205.5495 157.3512 204.3045 159.0495 204.1182 161.7921 203.9589 164.7462 203.7882 168.4227 203.5752 169.6476 200.2077 170.7915 197.0628 168.492 195.0024 166.4631 193.1835"/>
    <g transform="translate(0 44.1)">
      <mask id="f" fill="white">
        <use xlink:href="#e"/>
      </mask>
      <path fill="#000000" fill-opacity=".15" d="M120.9237 23.8788C118.7949 25.8978 117.3933 27.0792 115.8693 26.4672 114.4269 25.8882 114.3153 24.1881 114.3036 21.4563 114.2922 18.7497 114.2775 15.3813 111.1725 14.1348 108.0774 12.8931 105.6615 15.2829 103.7193 17.2041 101.7567 19.1454 100.4622 20.2824 99.0336 19.7091 97.5093 19.0971 97.317 17.1444 97.1973 14.2356 97.0854 11.5137 96.9582 8.4291 94.3368 7.3767 91.6983 6.3165 89.2701 8.4564 87.1287 10.3437 85.2894 11.9643 83.5536 13.494 82.1598 12.9348 80.9859 12.4635 80.8608 10.8372 80.7954 8.2155 80.7249 5.3919 80.637 1.8771 77.4624.603 74.4975-.5871 72.4596 1.5423 70.6605 3.4209 68.5533 5.6226 67.1085 6.8931 64.8231 5.9757L63.9696 8.1018C67.8576 9.663 70.329 7.0803 72.3156 5.0055 74.2395 2.9964 75.2274 2.1753 76.6089 2.7288 78.2652 3.3939 78.4302 5.2668 78.5052 8.2728 78.5721 10.9545 78.648 13.9944 81.306 15.0615 84.0093 16.1463 86.4714 13.9767 88.6434 12.0627 90.4488 10.4715 92.154 8.9703 93.4833 9.5028 94.6437 9.9684 94.8003 11.7162 94.908 14.3298 95.0235 17.1345 95.1663 20.6253 98.1801 21.8352 101.1066 23.01 103.3506 20.7909 105.3306 18.8334 107.3772 16.8087 108.7347 15.6261 110.319 16.2612 111.8799 16.8882 111.9999 18.6459 112.0125 21.4662 112.0236 24.1089 112.038 27.3984 115.0158 28.5933 118.0125 29.7972 120.3969 27.5358 122.5008 25.5411 124.5246 23.6217 125.8506 22.4949 127.1931 23.0352 128.2422 23.4564 128.3109 24.4944 128.2227 26.9397 128.1186 29.8332 127.9755 33.7965 132.5814 35.6454L133.4355 33.519C130.5327 32.3538 130.3944 30.2874 130.5126 27.0219 130.5975 24.6546 130.6944 21.9714 128.0463 20.9085 125.2419 19.7826 122.9481 21.9591 120.9237 23.8788M39.9075 39.1455C39.9075 38.4828 39.3702 37.9455 38.7075 37.9455L0 37.9455 0 40.3455 38.7075 40.3455C39.3702 40.3455 39.9075 39.8082 39.9075 39.1455" mask="url(#f)"/>
    </g>
    <polyline fill="#000000" fill-opacity=".15" points="294.755 155.245 294.755 144.755 300 144.755 300 142.355 292.355 142.355 292.355 157.645 300 157.645 300 155.245 294.755 155.245"/>
    <polyline fill="#000000" fill-opacity=".15" points="296.006 215.774 284.68 226.549 286.335 228.288 295.855 219.231 300 223.934 300 220.304 296.006 215.774"/>
    <path fill="#000000" fill-opacity=".15" d="M293.5554 82.0455C292.8927 82.0455 292.3554 82.5828 292.3554 83.2455 292.3554 83.9082 292.8927 84.4455 293.5554 84.4455L300 84.4455 300 82.0455 293.5554 82.0455M138.4731 110.7861C138.0594 110.268 137.3046 110.1834 136.7868 110.5968 136.2687 111.0102 136.1838 111.7653 136.5972 112.2831L166.3365 149.5482C166.5732 149.8452 166.9224 150 167.2752 150 167.5374 150 167.8017 149.9145 168.0228 149.7375 168.5409 149.3244 168.6258 148.569 168.2124 148.0512L138.4731 110.7861M50.5107 154.0452C35.1798 160.8069 32.28 178.578 32.1639 179.3313 32.0577 180.0219 32.5311 180.6678 33.222 180.7746 33.4509 180.8103 33.6747 180.7818 33.876 180.7032 34.2819 180.5439 34.5951 180.1797 34.6671 179.718 34.6938 179.5467 37.4904 162.5562 51.5325 156.3624 58.8387 153.1461 66.627 154.3557 71.8755 155.9427 77.652 157.6893 81.7218 160.2597 81.7617 160.2849 82.3509 160.6617 83.1333 160.4889 83.5104 159.8997 83.8869 159.3102 83.7141 158.5275 83.1249 158.151 82.4256 157.7043 65.8206 147.2853 50.5107 154.0452"/>
    <g transform="translate(66)">
      <mask id="h" fill="white">
        <use xlink:href="#g"/>
      </mask>
      <path fill="#000000" fill-opacity=".15" d="M176.913 65.3097C176.6313 65.0076 176.2005 64.8591 175.7688 64.9575 175.6086 64.9941 159.6657 68.472 149.3001 58.2699 143.9121 52.9596 142.2543 45.6765 141.8169 40.4988 141.3351 34.8003 142.176 30.3171 142.1841 30.273 142.3098 29.6226 141.8841 28.9938 141.2331 28.8675 140.5827 28.7421 139.9536 29.1681 139.8279 29.8185 139.6791 30.5907 136.3086 48.8595 147.6168 59.9799 158.9331 71.1189 175.5996 67.4586 176.3037 67.2972 176.9493 67.1493 177.3522 66.5067 177.2049 65.8605 177.1563 65.6466 177.0531 65.4594 176.913 65.3097M43.722 0L40.2348 0C36.1788 3.7152 29.9556 7.7583 22.0635 7.7838 14.4987 7.803 8.1951 3.7959 4.2402.4254 4.0737.2835 3.9111.1419 3.7497 0L.2013 0C4.8171 4.5846 12.4509 10.2186 22.0713 10.1835 32.1414 10.1511 39.5496 4.3764 43.722 0" mask="url(#h)"/>
    </g>
    <path fill="#000000" fill-opacity=".15" d="M234.5211,230.3724 C222.792,219.6693 206.2758,223.9563 205.5786,224.1444 C204.939,224.3169 204.5604,224.9739 204.7317,225.6138 C204.789,225.8259 204.8991,226.0092 205.0443,226.1538 C205.3377,226.4445 205.7736,226.5768 206.2014,226.4622 C206.3598,226.4196 222.1602,222.342 232.9038,232.1454 C238.4898,237.2439 240.42,244.4637 241.053,249.6207 C241.7496,255.2967 241.0791,259.8087 241.0722,259.8531 C240.9711,260.5083 241.4211,261.1209 242.0757,261.2214 C242.7306,261.3222 243.3432,260.8734 243.444,260.2182 C243.5637,259.4415 246.2427,241.0563 234.5211,230.3724"/>
    <g transform="translate(18.9)">
      <mask id="j" fill="white">
        <use xlink:href="#i"/>
      </mask>
      <path fill="#000000" fill-opacity=".15" d="M95.2572 157.6881C94.6185 157.5126 93.9576 157.8876 93.7818 158.5269L80.8077 205.6881C80.6319 206.3271 81.0075 206.9874 81.6465 207.1632 81.753 207.1926 81.8601 207.2064 81.9654 207.2064 82.4922 207.2064 82.9755 206.8569 83.1219 206.3244L96.096 159.1632C96.2718 158.5242 95.8962 157.8639 95.2572 157.6881M4.6197 7.5447C4.7211 7.5006 4.8132 7.4445 4.8951 7.3779 5.3052 7.0473 5.4615 6.4716 5.241 5.9652L2.6433 0 .0252 0 3.0405 6.924C3.3051 7.5312 4.0122 7.8093 4.6197 7.5447" mask="url(#j)"/>
    </g>
    <polyline fill="#000000" fill-opacity=".15" points="253.039 292.355 253.039 300 255.439 300 255.439 294.755 265.928 294.755 265.928 300 268.328 300 268.328 292.355 253.039 292.355"/>
    <polyline fill="#000000" fill-opacity=".15" points="208.062 294.454 208.044 292.055 192.451 292.171 192.7 300 195.101 300 194.928 294.553 208.062 294.454"/>
    <path fill="#000000" fill-opacity=".15" d="M63.3051 292.902C62.9361 292.3515 62.1912 292.2045 61.6401 292.5729 61.0896 292.9419 60.942 293.6871 61.311 294.2376 61.4829 294.4944 63.2076 297.0267 66.2013 300L69.7497 300C65.697 296.4324 63.3291 292.9377 63.3051 292.902M113.2302 293.5377C113.0448 293.4201 112.8396 293.3598 112.635 293.352 112.2222 293.3358 111.8118 293.5335 111.5739 293.907 111.5337 293.9703 109.6536 296.8689 106.2348 300L109.722 300C112.1286 297.4755 113.4594 295.416 113.6007 295.1928 113.9553 294.6333 113.7891 293.8932 113.2302 293.5377M3.0324 260.499C2.4252 260.7636 2.1468 261.4704 2.4114 262.0782L18.9252 300 21.5433 300 4.6119 261.1194C4.3473 260.5122 3.6402 260.2341 3.0324 260.499M253.0395 44.7003C252.5997 44.7003 252.1761 44.4573 251.9658 44.0373 251.6688 43.4448 251.9085 42.7239 252.5013 42.4269L281.7627 27.7725C282.3543 27.4764 283.0764 27.7155 283.3728 28.3083 283.6695 28.9008 283.4301 29.6217 282.8373 29.9187L253.5759 44.5731C253.4037 44.6592 253.2201 44.7003 253.0395 44.7003"/>
  </g>
</svg>
