<?xml version="1.0" encoding="utf-8"?><svg xmlns="http://www.w3.org/2000/svg" xmlns:xlink="http://www.w3.org/1999/xlink"><defs><svg viewBox="0 0 24 24" id="access-time" xmlns="http://www.w3.org/2000/svg"><path d="M11.99 2C6.47 2 2 6.48 2 12s4.47 10 9.99 10C17.52 22 22 17.52 22 12S17.52 2 11.99 2zM12 20c-4.42 0-8-3.58-8-8s3.58-8 8-8 8 3.58 8 8-3.58 8-8 8zm.5-13H11v6l5.25 3.15.75-1.23-4.5-2.67z"/></svg><svg viewBox="0 0 24 24" id="add" xmlns="http://www.w3.org/2000/svg"><path d="M19 13h-6v6h-2v-6H5v-2h6V5h2v6h6v2z"/></svg><svg viewBox="0 0 32 32" id="add-tag-custom" xmlns="http://www.w3.org/2000/svg"><path d="M16 5l-.313.281L4.281 16.813l-.687.687.687.719 9.5 9.5.719.687.688-.687 1.218-1.219C17.46 29.688 20.466 32 24 32c4.406 0 8-3.594 8-8 0-3.498-2.268-6.48-5.406-7.563l.125-.125L27 16V5H16zm.844 2H25v8.156l-.844.844H24c-4.406 0-8 3.594-8 8v.094l-1.5 1.5L6.406 17.5 16.844 7zM22 9a1 1 0 1 0 0 2 1 1 0 0 0 0-2zm2 9c3.326 0 6 2.674 6 6s-2.674 6-6 6-6-2.674-6-6 2.674-6 6-6zm-1 2v3h-3v2h3v3h2v-3h3v-2h-3v-3h-2z"/></svg><svg viewBox="0 0 24 24" id="ads-custom" xmlns="http://www.w3.org/2000/svg"><path d="M22 22L16 3H8L2 22h6l6.527-5.594L16 22zM9.578 16L12 6.8l2.422 9.2z"/></svg><svg viewBox="0 0 24 24" id="arrow-back" xmlns="http://www.w3.org/2000/svg"><path d="M20 11H7.83l5.59-5.59L12 4l-8 8 8 8 1.41-1.41L7.83 13H20v-2z"/></svg><svg viewBox="0 0 24 24" id="arrow-drop-down" xmlns="http://www.w3.org/2000/svg"><path d="M7 10l5 5 5-5z"/></svg><svg viewBox="0 0 24 24" id="assignment" xmlns="http://www.w3.org/2000/svg"><path d="M19 3h-4.18C14.4 1.84 13.3 1 12 1c-1.3 0-2.4.84-2.82 2H5c-1.1 0-2 .9-2 2v14c0 1.1.9 2 2 2h14c1.1 0 2-.9 2-2V5c0-1.1-.9-2-2-2zm-7 0c.55 0 1 .45 1 1s-.45 1-1 1-1-.45-1-1 .45-1 1-1zm2 14H7v-2h7v2zm3-4H7v-2h10v2zm0-4H7V7h10v2z"/></svg><svg viewBox="0 0 24 24" id="attachment" xmlns="http://www.w3.org/2000/svg"><path d="M2 12.5C2 9.46 4.46 7 7.5 7H18c2.21 0 4 1.79 4 4s-1.79 4-4 4H9.5a2.5 2.5 0 0 1 0-5H17v2H9.41c-.55 0-.55 1 0 1H18c1.1 0 2-.9 2-2s-.9-2-2-2H7.5C5.57 9 4 10.57 4 12.5S5.57 16 7.5 16H17v2H7.5C4.46 18 2 15.54 2 12.5z"/></svg><svg viewBox="0 0 32 32" id="box-filled-custom" xmlns="http://www.w3.org/2000/svg"><path style="text-indent:0;text-align:start;line-height:normal;text-transform:none;block-progression:tb;-inkscape-font-specification:Sans" d="M16 4l-5 4h10l-5-4zM8.5 5L5 9.656V27h22V9.656L23.5 5h-5L21 7h1.5L24 9H8l1.5-2H11l2.5-2h-5zM7 11h18v14H7V11zm5.813 2A1.001 1.001 0 0 0 13 15h6a1 1 0 1 0 0-2h-6a1 1 0 0 0-.094 0 1.001 1.001 0 0 0-.094 0z" overflow="visible" font-family="Sans"/></svg><svg viewBox="0 0 24 24" id="cancel" xmlns="http://www.w3.org/2000/svg"><path d="M12 2C6.47 2 2 6.47 2 12s4.47 10 10 10 10-4.47 10-10S17.53 2 12 2zm5 13.59L15.59 17 12 13.41 8.41 17 7 15.59 10.59 12 7 8.41 8.41 7 12 10.59 15.59 7 17 8.41 13.41 12 17 15.59z"/></svg><svg viewBox="0 0 24 24" id="check" xmlns="http://www.w3.org/2000/svg"><path d="M9 16.17L4.83 12l-1.42 1.41L9 19 21 7l-1.41-1.41z"/></svg><svg viewBox="0 0 24 24" id="check-circle" xmlns="http://www.w3.org/2000/svg"><path d="M12 2C6.48 2 2 6.48 2 12s4.48 10 10 10 10-4.48 10-10S17.52 2 12 2zm-2 15l-5-5 1.41-1.41L10 14.17l7.59-7.59L19 8l-9 9z"/></svg><svg viewBox="0 0 24 24" id="clear-all" xmlns="http://www.w3.org/2000/svg"><path d="M5 13h14v-2H5v2zm-2 4h14v-2H3v2zM7 7v2h14V7H7z"/></svg><svg viewBox="0 0 24 24" id="close" xmlns="http://www.w3.org/2000/svg"><path d="M19 6.41L17.59 5 12 10.59 6.41 5 5 6.41 10.59 12 5 17.59 6.41 19 12 13.41 17.59 19 19 17.59 13.41 12z"/></svg><svg viewBox="0 0 24 24" id="code" xmlns="http://www.w3.org/2000/svg"><path d="M9.4 16.6L4.8 12l4.6-4.6L8 6l-6 6 6 6 1.4-1.4zm5.2 0l4.6-4.6-4.6-4.6L16 6l6 6-6 6-1.4-1.4z"/></svg><svg viewBox="0 0 24 24" id="comment" xmlns="http://www.w3.org/2000/svg"><path d="M21.99 4c0-1.1-.89-2-1.99-2H4c-1.1 0-2 .9-2 2v12c0 1.1.9 2 2 2h14l4 4-.01-18zM18 14H6v-2h12v2zm0-3H6V9h12v2zm0-3H6V6h12v2z"/></svg><svg viewBox="0 0 24 24" id="create-new-folder" xmlns="http://www.w3.org/2000/svg"><path d="M20 6h-8l-2-2H4c-1.11 0-1.99.89-1.99 2L2 18c0 1.11.89 2 2 2h16c1.11 0 2-.89 2-2V8c0-1.11-.89-2-2-2zm-1 8h-3v3h-2v-3h-3v-2h3V9h2v3h3v2z"/></svg><svg viewBox="0 0 24 24" id="credit-card" xmlns="http://www.w3.org/2000/svg"><path d="M20 4H4c-1.11 0-1.99.89-1.99 2L2 18c0 1.11.89 2 2 2h16c1.11 0 2-.89 2-2V6c0-1.11-.89-2-2-2zm0 14H4v-6h16v6zm0-10H4V6h16v2z"/></svg><svg viewBox="0 0 24 24" id="dashboard" xmlns="http://www.w3.org/2000/svg"><path d="M3 13h8V3H3v10zm0 8h8v-6H3v6zm10 0h8V11h-8v10zm0-18v6h8V3h-8z"/></svg><svg viewBox="0 0 24 24" id="date-range" xmlns="http://www.w3.org/2000/svg"><path d="M9 11H7v2h2v-2zm4 0h-2v2h2v-2zm4 0h-2v2h2v-2zm2-7h-1V2h-2v2H8V2H6v2H5c-1.11 0-1.99.9-1.99 2L3 20a2 2 0 0 0 2 2h14c1.1 0 2-.9 2-2V6c0-1.1-.9-2-2-2zm0 16H5V9h14v11z"/></svg><svg viewBox="0 0 24 24" id="delete" xmlns="http://www.w3.org/2000/svg"><path d="M6 19c0 1.1.9 2 2 2h8c1.1 0 2-.9 2-2V7H6v12zM19 4h-3.5l-1-1h-5l-1 1H5v2h14V4z"/></svg><svg viewBox="0 0 32 32" id="delete-custom" xmlns="http://www.w3.org/2000/svg"><path style="text-indent:0;text-align:start;line-height:normal;text-transform:none;block-progression:tb;-inkscape-font-specification:Bitstream Vera Sans" d="M13.594 4l-.313.281-.719.719H6v2h1v18c0 1.645 1.355 3 3 3h12c1.645 0 3-1.355 3-3V7h1V5h-6.563l-.718-.719L18.406 4h-4.812zm.844 2h3.124l.72.719.312.281H23v18c0 .555-.445 1-1 1H10c-.555 0-1-.445-1-1V7h4.406l.313-.281.719-.719zM11 11v11h2V11h-2zm4 0v11h2V11h-2zm4 0v11h2V11h-2z" overflow="visible" font-family="Bitstream Vera Sans"/></svg><svg viewBox="0 0 24 24" id="delete-forever" xmlns="http://www.w3.org/2000/svg"><path d="M6 19c0 1.1.9 2 2 2h8c1.1 0 2-.9 2-2V7H6v12zm2.46-7.12l1.41-1.41L12 12.59l2.12-2.12 1.41 1.41L13.41 14l2.12 2.12-1.41 1.41L12 15.41l-2.12 2.12-1.41-1.41L10.59 14l-2.13-2.12zM15.5 4l-1-1h-5l-1 1H5v2h14V4z"/></svg><svg viewBox="0 0 24 24" id="description" xmlns="http://www.w3.org/2000/svg"><path d="M14 2H6c-1.1 0-1.99.9-1.99 2L4 20c0 1.1.89 2 1.99 2H18c1.1 0 2-.9 2-2V8l-6-6zm2 16H8v-2h8v2zm0-4H8v-2h8v2zm-3-5V3.5L18.5 9H13z"/></svg><svg viewBox="0 0 24 24" id="device-hub" xmlns="http://www.w3.org/2000/svg"><path d="M17 16l-4-4V8.82C14.16 8.4 15 7.3 15 6c0-1.66-1.34-3-3-3S9 4.34 9 6c0 1.3.84 2.4 2 2.82V12l-4 4H3v5h5v-3.05l4-4.2 4 4.2V21h5v-5h-4z"/></svg><svg viewBox="0 0 24 24" id="drag-handle" xmlns="http://www.w3.org/2000/svg"><path d="M20 9H4v2h16V9zM4 15h16v-2H4v2z"/></svg><svg viewBox="0 0 48 48" id="drop-custom" xmlns="http://www.w3.org/2000/svg"><path stroke="#E0E0E0" d="M24 44c-7.168 0-13-5.816-13-12.971C11 24 24 4 24 4s13 20 13 27.029C37 38.184 31.168 44 24 44z"/></svg><svg viewBox="0 0 48 48" id="drop-custom" xmlns="http://www.w3.org/2000/svg"><path stroke="#E0E0E0" d="M24 44c-7.168 0-13-5.816-13-12.971C11 24 24 4 24 4s13 20 13 27.029C37 38.184 31.168 44 24 44z"/></svg><svg viewBox="0 0 24 24" id="edit" xmlns="http://www.w3.org/2000/svg"><path d="M3 17.25V21h3.75L17.81 9.94l-3.75-3.75L3 17.25zM20.71 7.04a.996.996 0 0 0 0-1.41l-2.34-2.34a.996.996 0 0 0-1.41 0l-1.83 1.83 3.75 3.75 1.83-1.83z"/></svg><svg viewBox="0 0 50 50" id="envato-custom" xmlns="http://www.w3.org/2000/svg"><path d="M23.898 47C13.656 47 5.004 38.355 5.004 28.125V28c-.074-4.926 1.555-8.285 2.258-9.5 1.36-2.348 3.035-4.09 3.55-4.363.754-.403 1.31.195 1.551.449.469.5.235 1.11.145 1.34-.895 2.34-1.578 4.355-1.504 7.172.094 3.808 1.484 5.601 2.082 6.195.375.379.684.555.93.64a41.26 41.26 0 0 1 .757-6.628c.34-1.715 1.508-6.22 4.915-11.008 4.027-5.664 8.761-8.024 9.527-8.254 1.355-.406 4.32-.914 6.742-1.023 2.574-.11 3.203.554 3.965 2.015l.125.242c1.773 3.336 4.984 13.555 3.61 23.856C42.011 39.993 34.256 47 23.897 47zm-9.25-17h-.02.024-.004z"/></svg><svg viewBox="0 0 24 24" id="exit-to-app" xmlns="http://www.w3.org/2000/svg"><path d="M10.09 15.59L11.5 17l5-5-5-5-1.41 1.41L12.67 11H3v2h9.67l-2.58 2.59zM19 3H5a2 2 0 0 0-2 2v4h2V5h14v14H5v-4H3v4a2 2 0 0 0 2 2h14c1.1 0 2-.9 2-2V5c0-1.1-.9-2-2-2z"/></svg><svg viewBox="0 0 24 24" id="facebook-custom" xmlns="http://www.w3.org/2000/svg"><path d="M22.676 0H1.324C.593 0 0 .593 0 1.324v21.352C0 23.408.593 24 1.324 24h11.494v-9.294H9.689v-3.621h3.129V8.41c0-3.099 1.894-4.785 4.659-4.785 1.325 0 2.464.097 2.796.141v3.24h-1.921c-1.5 0-1.792.721-1.792 1.771v2.311h3.584l-.465 3.63H16.56V24h6.115c.733 0 1.325-.592 1.325-1.324V1.324C24 .593 23.408 0 22.676 0"/></svg><svg viewBox="0 0 24 24" id="file-download" xmlns="http://www.w3.org/2000/svg"><path d="M19 9h-4V3H9v6H5l7 7 7-7zM5 18v2h14v-2H5z"/></svg><svg viewBox="0 0 24 24" id="file-upload" xmlns="http://www.w3.org/2000/svg"><path d="M9 16h6v-6h4l-7-7-7 7h4zm-4 2h14v2H5z"/></svg><svg viewBox="0 0 32 32" id="flag-custom" xmlns="http://www.w3.org/2000/svg"><path style="text-indent:0;text-align:start;line-height:normal;text-transform:none;block-progression:tb;-inkscape-font-specification:Sans" d="M5 5v24h2V19h8v3h12V8H17V5H5zm2 2h8v10H7V7zm10 3h8v10h-8V10z" overflow="visible" font-family="Sans"/></svg><svg viewBox="0 0 24 24" id="folder-open" xmlns="http://www.w3.org/2000/svg"><path d="M20 6h-8l-2-2H4c-1.1 0-1.99.9-1.99 2L2 18c0 1.1.9 2 2 2h16c1.1 0 2-.9 2-2V8c0-1.1-.9-2-2-2zm0 12H4V8h16v10z"/></svg><svg viewBox="0 0 24 24" id="format-align-center" xmlns="http://www.w3.org/2000/svg"><path d="M7 15v2h10v-2H7zm-4 6h18v-2H3v2zm0-8h18v-2H3v2zm4-6v2h10V7H7zM3 3v2h18V3H3z"/></svg><svg viewBox="0 0 24 24" id="format-align-left" xmlns="http://www.w3.org/2000/svg"><path d="M15 15H3v2h12v-2zm0-8H3v2h12V7zM3 13h18v-2H3v2zm0 8h18v-2H3v2zM3 3v2h18V3H3z"/></svg><svg viewBox="0 0 24 24" id="format-align-right" xmlns="http://www.w3.org/2000/svg"><path d="M3 21h18v-2H3v2zm6-4h12v-2H9v2zm-6-4h18v-2H3v2zm6-4h12V7H9v2zM3 3v2h18V3H3z"/></svg><svg viewBox="0 0 24 24" id="format-bold" xmlns="http://www.w3.org/2000/svg"><path d="M15.6 10.79c.97-.67 1.65-1.77 1.65-2.79 0-2.26-1.75-4-4-4H7v14h7.04c2.09 0 3.71-1.7 3.71-3.79 0-1.52-.86-2.82-2.15-3.42zM10 6.5h3c.83 0 1.5.67 1.5 1.5s-.67 1.5-1.5 1.5h-3v-3zm3.5 9H10v-3h3.5c.83 0 1.5.67 1.5 1.5s-.67 1.5-1.5 1.5z"/></svg><svg viewBox="0 0 24 24" id="format-clear" xmlns="http://www.w3.org/2000/svg"><path d="M3.27 5L2 6.27l6.97 6.97L6.5 19h3l1.57-3.66L16.73 21 18 19.73 3.55 5.27 3.27 5zM6 5v.18L8.82 8h2.4l-.72 1.68 2.1 2.1L14.21 8H20V5H6z"/></svg><svg viewBox="0 0 24 24" id="format-color-fill" xmlns="http://www.w3.org/2000/svg"><path d="M16.56 8.94L7.62 0 6.21 1.41l2.38 2.38-5.15 5.15a1.49 1.49 0 0 0 0 2.12l5.5 5.5c.29.29.68.44 1.06.44s.77-.15 1.06-.44l5.5-5.5c.59-.58.59-1.53 0-2.12zM5.21 10L10 5.21 14.79 10H5.21zM19 11.5s-2 2.17-2 3.5c0 1.1.9 2 2 2s2-.9 2-2c0-1.33-2-3.5-2-3.5z"/><path fill-opacity=".36" d="M0 20h24v4H0z"/></svg><svg viewBox="0 0 24 24" id="format-color-text" xmlns="http://www.w3.org/2000/svg"><path fill-opacity=".36" d="M0 20h24v4H0z"/><path d="M11 3L5.5 17h2.25l1.12-3h6.25l1.12 3h2.25L13 3h-2zm-1.38 9L12 5.67 14.38 12H9.62z"/></svg><svg viewBox="0 0 24 24" id="format-italic" xmlns="http://www.w3.org/2000/svg"><path d="M10 4v3h2.21l-3.42 8H6v3h8v-3h-2.21l3.42-8H18V4z"/></svg><svg viewBox="0 0 24 24" id="format-list-bulleted" xmlns="http://www.w3.org/2000/svg"><path d="M4 10.5c-.83 0-1.5.67-1.5 1.5s.67 1.5 1.5 1.5 1.5-.67 1.5-1.5-.67-1.5-1.5-1.5zm0-6c-.83 0-1.5.67-1.5 1.5S3.17 7.5 4 7.5 5.5 6.83 5.5 6 4.83 4.5 4 4.5zm0 12c-.83 0-1.5.68-1.5 1.5s.68 1.5 1.5 1.5 1.5-.68 1.5-1.5-.67-1.5-1.5-1.5zM7 19h14v-2H7v2zm0-6h14v-2H7v2zm0-8v2h14V5H7z"/></svg><svg viewBox="0 0 24 24" id="format-list-numbered" xmlns="http://www.w3.org/2000/svg"><path d="M2 17h2v.5H3v1h1v.5H2v1h3v-4H2v1zm1-9h1V4H2v1h1v3zm-1 3h1.8L2 13.1v.9h3v-1H3.2L5 10.9V10H2v1zm5-6v2h14V5H7zm0 14h14v-2H7v2zm0-6h14v-2H7v2z"/></svg><svg viewBox="0 0 24 24" id="format-underlined" xmlns="http://www.w3.org/2000/svg"><path d="M12 17c3.31 0 6-2.69 6-6V3h-2.5v8c0 1.93-1.57 3.5-3.5 3.5S8.5 12.93 8.5 11V3H6v8c0 3.31 2.69 6 6 6zm-7 2v2h14v-2H5z"/></svg><svg viewBox="0 0 24 24" id="google-custom" xmlns="http://www.w3.org/2000/svg"><path d="M12.24 10.285V14.4h6.806c-.275 1.765-2.056 5.174-6.806 5.174-4.095 0-7.439-3.389-7.439-7.574s3.345-7.574 7.439-7.574c2.33 0 3.891.989 4.785 1.849l3.254-3.138C18.189 1.186 15.479 0 12.24 0c-6.635 0-12 5.365-12 12s5.365 12 12 12c6.926 0 11.52-4.869 11.52-11.726 0-.788-.085-1.39-.189-1.989H12.24z"/></svg><svg viewBox="0 0 24 24" id="image" xmlns="http://www.w3.org/2000/svg"><path d="M21 19V5c0-1.1-.9-2-2-2H5c-1.1 0-2 .9-2 2v14c0 1.1.9 2 2 2h14c1.1 0 2-.9 2-2zM8.5 13.5l2.5 3.01L14.5 12l4.5 6H5l3.5-4.5z"/></svg><svg viewBox="0 0 24 24" id="inbox" xmlns="http://www.w3.org/2000/svg"><path d="M19 3H4.99c-1.11 0-1.98.89-1.98 2L3 19c0 1.1.88 2 1.99 2H19c1.1 0 2-.9 2-2V5a2 2 0 0 0-2-2zm0 12h-4c0 1.66-1.35 3-3 3s-3-1.34-3-3H4.99V5H19v10z"/></svg><svg viewBox="0 0 32 32" id="inbox-custom" xmlns="http://www.w3.org/2000/svg"><path style="text-indent:0;text-align:start;line-height:normal;text-transform:none;block-progression:tb;-inkscape-font-specification:Bitstream Vera Sans" d="M7.156 5L7 5.844l-2 13V27h22v-8.156l-2-13L24.844 5H7.156zm1.719 2h14.25l1.688 11H18v1c0 1.117-.883 2-2 2s-2-.883-2-2v-1H7.187L8.876 7zM7 20h5.188c.453 1.71 1.965 3 3.812 3 1.847 0 3.359-1.29 3.813-3H25v5H7v-5z" overflow="visible" font-family="Bitstream Vera Sans"/></svg><svg viewBox="0 0 24 24" id="insert-drive-file" xmlns="http://www.w3.org/2000/svg"><path d="M6 2c-1.1 0-1.99.9-1.99 2L4 20c0 1.1.89 2 1.99 2H18c1.1 0 2-.9 2-2V8l-6-6H6zm7 7V3.5L18.5 9H13z"/></svg><svg viewBox="0 0 24 24" id="keyboard-arrow-down" xmlns="http://www.w3.org/2000/svg"><path d="M7.41 7.84L12 12.42l4.59-4.58L18 9.25l-6 6-6-6z"/></svg><svg viewBox="0 0 24 24" id="keyboard-arrow-left" xmlns="http://www.w3.org/2000/svg"><path d="M15.41 16.09l-4.58-4.59 4.58-4.59L14 5.5l-6 6 6 6z"/></svg><svg viewBox="0 0 24 24" id="keyboard-arrow-right" xmlns="http://www.w3.org/2000/svg"><path d="M8.59 16.34l4.58-4.59-4.58-4.59L10 5.75l6 6-6 6z"/></svg><svg viewBox="0 0 24 24" id="keyboard-backspace" xmlns="http://www.w3.org/2000/svg"><path d="M21 11H6.83l3.58-3.59L9 6l-6 6 6 6 1.41-1.41L6.83 13H21z"/></svg><svg viewBox="0 0 24 24" id="link" xmlns="http://www.w3.org/2000/svg"><path d="M3.9 12c0-1.71 1.39-3.1 3.1-3.1h4V7H7c-2.76 0-5 2.24-5 5s2.24 5 5 5h4v-1.9H7c-1.71 0-3.1-1.39-3.1-3.1zM8 13h8v-2H8v2zm9-6h-4v1.9h4c1.71 0 3.1 1.39 3.1 3.1s-1.39 3.1-3.1 3.1h-4V17h4c2.76 0 5-2.24 5-5s-2.24-5-5-5z"/></svg><svg viewBox="0 0 24 24" id="local-offer" xmlns="http://www.w3.org/2000/svg"><path d="M21.41 11.58l-9-9C12.05 2.22 11.55 2 11 2H4c-1.1 0-2 .9-2 2v7c0 .55.22 1.05.59 1.42l9 9c.36.36.86.58 1.41.58.55 0 1.05-.22 1.41-.59l7-7c.37-.36.59-.86.59-1.41 0-.55-.23-1.06-.59-1.42zM5.5 7C4.67 7 4 6.33 4 5.5S4.67 4 5.5 4 7 4.67 7 5.5 6.33 7 5.5 7z"/></svg><svg viewBox="0 0 24 24" id="mail" xmlns="http://www.w3.org/2000/svg"><path d="M20 4H4c-1.1 0-1.99.9-1.99 2L2 18c0 1.1.9 2 2 2h16c1.1 0 2-.9 2-2V6c0-1.1-.9-2-2-2zm0 4l-8 5-8-5V6l8 5 8-5v2z"/></svg><svg viewBox="0 0 24 24" id="mail-outline" xmlns="http://www.w3.org/2000/svg"><path d="M20 4H4c-1.1 0-1.99.9-1.99 2L2 18c0 1.1.9 2 2 2h16c1.1 0 2-.9 2-2V6c0-1.1-.9-2-2-2zm0 14H4V8l8 5 8-5v10zm-8-7L4 6h16l-8 5z"/></svg><svg viewBox="0 0 24 24" id="menu" xmlns="http://www.w3.org/2000/svg"><path d="M3 18h18v-2H3v2zm0-5h18v-2H3v2zm0-7v2h18V6H3z"/></svg><svg viewBox="0 0 24 24" id="more-vert" xmlns="http://www.w3.org/2000/svg"><path d="M12 8c1.1 0 2-.9 2-2s-.9-2-2-2-2 .9-2 2 .9 2 2 2zm0 2c-1.1 0-2 .9-2 2s.9 2 2 2 2-.9 2-2-.9-2-2-2zm0 6c-1.1 0-2 .9-2 2s.9 2 2 2 2-.9 2-2-.9-2-2-2z"/></svg><svg viewBox="0 0 24 24" id="new-ticket-custom" xmlns="http://www.w3.org/2000/svg"><path d="M4 4c-1.1 0-2 .9-2 2v4c1.1 0 2 .9 2 2s-.9 2-2 2v4c0 1.1.9 2 2 2h16c1.1 0 2-.9 2-2v-4c-1.1 0-2-.9-2-2s.9-2 2-2V6c0-1.1-.9-2-2-2H4zm0 2h16v2.537A4.003 4.003 0 0 0 18 12c0 1.477.805 2.77 2 3.463V18H4v-2.537A4 4 0 0 0 6 12a4 4 0 0 0-2-3.463V6zm7 2v3H8v2h3v3h2v-3h3v-2h-3V8h-2z"/></svg><svg viewBox="0 0 24 24" id="note" xmlns="http://www.w3.org/2000/svg"><path d="M22 10l-6-6H4c-1.1 0-2 .9-2 2v12.01c0 1.1.9 1.99 2 1.99l16-.01c1.1 0 2-.89 2-1.99v-8zm-7-4.5l5.5 5.5H15V5.5z"/></svg><svg viewBox="0 0 32 32" id="note-custom" xmlns="http://www.w3.org/2000/svg"><path style="text-indent:0;text-align:start;line-height:normal;text-transform:none;block-progression:tb;-inkscape-font-specification:Bitstream Vera Sans" d="M5 5v22h15.406l.313-.281 6-6 .281-.313V5H5zm2 2h18v12h-6v6H7V7zm14 14h2.563L21 23.563V21z" overflow="visible" font-family="Bitstream Vera Sans"/></svg><svg viewBox="0 0 32 32" id="open-in-browser-custom" xmlns="http://www.w3.org/2000/svg"><path d="M4 5v22h9v-2H6V13h20v12h-7v2h9V5zm2 2h20v4H6zm2 1c-.55 0-1 .45-1 1s.45 1 1 1 1-.45 1-1-.45-1-1-1zm3 0c-.55 0-1 .45-1 1s.45 1 1 1 1-.45 1-1-.45-1-1-1zm2 0v2h11V8zm3 8.594l-.719.687-3.5 3.5 1.438 1.438L15 20.437V28c0 .566-.434 1-1 1h-2v2h2c1.645 0 3-1.355 3-3v-7.563l1.781 1.782 1.438-1.438-3.5-3.5z"/></svg><svg viewBox="0 0 24 24" id="open-in-new" xmlns="http://www.w3.org/2000/svg"><path d="M19 19H5V5h7V3H5a2 2 0 0 0-2 2v14a2 2 0 0 0 2 2h14c1.1 0 2-.9 2-2v-7h-2v7zM14 3v2h3.59l-9.83 9.83 1.41 1.41L19 6.41V10h2V3h-7z"/></svg><svg viewBox="0 0 24 24" id="pause" xmlns="http://www.w3.org/2000/svg"><path d="M6 19h4V5H6v14zm8-14v14h4V5h-4z"/></svg><svg viewBox="0 0 24 24" id="people" xmlns="http://www.w3.org/2000/svg"><path d="M16 11c1.66 0 2.99-1.34 2.99-3S17.66 5 16 5c-1.66 0-3 1.34-3 3s1.34 3 3 3zm-8 0c1.66 0 2.99-1.34 2.99-3S9.66 5 8 5C6.34 5 5 6.34 5 8s1.34 3 3 3zm0 2c-2.33 0-7 1.17-7 3.5V19h14v-2.5c0-2.33-4.67-3.5-7-3.5zm8 0c-.29 0-.62.02-.97.05 1.16.84 1.97 1.97 1.97 3.45V19h6v-2.5c0-2.33-4.67-3.5-7-3.5z"/></svg><svg viewBox="0 0 24 24" id="person" xmlns="http://www.w3.org/2000/svg"><path d="M12 12c2.21 0 4-1.79 4-4s-1.79-4-4-4-4 1.79-4 4 1.79 4 4 4zm0 2c-2.67 0-8 1.34-8 4v2h16v-2c0-2.66-5.33-4-8-4z"/></svg><svg viewBox="0 0 24 24" id="photo-size-select-actual" xmlns="http://www.w3.org/2000/svg"><path d="M21 3H3C2 3 1 4 1 5v14c0 1.1.9 2 2 2h18c1 0 2-1 2-2V5c0-1-1-2-2-2zM5 17l3.5-4.5 2.5 3.01L14.5 11l4.5 6H5z"/></svg><svg viewBox="0 0 24 24" id="pie-chart" xmlns="http://www.w3.org/2000/svg"><path d="M11 2v20c-5.07-.5-9-4.79-9-10s3.93-9.5 9-10zm2.03 0v8.99H22c-.47-4.74-4.24-8.52-8.97-8.99zm0 11.01V22c4.74-.47 8.5-4.25 8.97-8.99h-8.97z"/></svg><svg viewBox="0 0 24 24" id="print" xmlns="http://www.w3.org/2000/svg"><path d="M19 8H5c-1.66 0-3 1.34-3 3v6h4v4h12v-4h4v-6c0-1.66-1.34-3-3-3zm-3 11H8v-5h8v5zm3-7c-.55 0-1-.45-1-1s.45-1 1-1 1 .45 1 1-.45 1-1 1zm-1-9H6v4h12V3z"/></svg><svg viewBox="0 0 24 24" id="question-answer" xmlns="http://www.w3.org/2000/svg"><path d="M21 6h-2v9H6v2c0 .55.45 1 1 1h11l4 4V7c0-.55-.45-1-1-1zm-4 6V3c0-.55-.45-1-1-1H3c-.55 0-1 .45-1 1v14l4-4h10c.55 0 1-.45 1-1z"/></svg><svg viewBox="0 0 24 24" id="redo" xmlns="http://www.w3.org/2000/svg"><path d="M18.4 10.6C16.55 8.99 14.15 8 11.5 8c-4.65 0-8.58 3.03-9.96 7.22L3.9 16a8.002 8.002 0 0 1 7.6-5.5c1.95 0 3.73.72 5.12 1.88L13 16h9V7l-3.6 3.6z"/></svg><svg viewBox="0 0 24 24" id="remove" xmlns="http://www.w3.org/2000/svg"><path d="M19 13H5v-2h14v2z"/></svg><svg viewBox="0 0 24 24" id="remove-red-eye" xmlns="http://www.w3.org/2000/svg"><path d="M12 4.5C7 4.5 2.73 7.61 1 12c1.73 4.39 6 7.5 11 7.5s9.27-3.11 11-7.5c-1.73-4.39-6-7.5-11-7.5zM12 17c-2.76 0-5-2.24-5-5s2.24-5 5-5 5 2.24 5 5-2.24 5-5 5zm0-8c-1.66 0-3 1.34-3 3s1.34 3 3 3 3-1.34 3-3-1.34-3-3-3z"/></svg><svg viewBox="0 0 24 24" id="reply" xmlns="http://www.w3.org/2000/svg"><path d="M10 9V5l-7 7 7 7v-4.1c5 0 8.5 1.6 11 5.1-1-5-4-10-11-11z"/></svg><svg viewBox="0 0 32 32" id="return-custom" xmlns="http://www.w3.org/2000/svg"><path style="text-indent:0;text-align:start;line-height:normal;text-transform:none;block-progression:tb;-inkscape-font-specification:Bitstream Vera Sans" d="M8.281 5.281l-6 6-.687.719.687.719 6 6L9.72 17.28 5.438 13H23c2.755 0 5 2.245 5 5s-2.245 5-5 5h-3v2h3c3.845 0 7-3.155 7-7s-3.155-7-7-7H5.437L9.72 6.719 8.28 5.28zM8 23v2h2v-2H8zm4 0v2h2v-2h-2zm4 0v2h2v-2h-2z" overflow="visible" font-family="Bitstream Vera Sans"/></svg><svg viewBox="0 0 24 24" id="sd-storage" xmlns="http://www.w3.org/2000/svg"><path d="M18 2h-8L4.02 8 4 20c0 1.1.9 2 2 2h12c1.1 0 2-.9 2-2V4c0-1.1-.9-2-2-2zm-6 6h-2V4h2v4zm3 0h-2V4h2v4zm3 0h-2V4h2v4z"/></svg><svg viewBox="0 0 24 24" id="search" xmlns="http://www.w3.org/2000/svg"><path d="M15.5 14h-.79l-.28-.27A6.471 6.471 0 0 0 16 9.5 6.5 6.5 0 1 0 9.5 16c1.61 0 3.09-.59 4.23-1.57l.27.28v.79l5 4.99L20.49 19l-4.99-5zm-6 0C7.01 14 5 11.99 5 9.5S7.01 5 9.5 5 14 7.01 14 9.5 11.99 14 9.5 14z"/></svg><svg viewBox="0 0 24 24" id="settings" xmlns="http://www.w3.org/2000/svg"><path d="M19.43 12.98c.04-.32.07-.64.07-.98s-.03-.66-.07-.98l2.11-1.65c.19-.15.24-.42.12-.64l-2-3.46c-.12-.22-.39-.3-.61-.22l-2.49 1c-.52-.4-1.08-.73-1.69-.98l-.38-2.65A.488.488 0 0 0 14 2h-4c-.25 0-.46.18-.49.42l-.38 2.65c-.61.25-1.17.59-1.69.98l-2.49-1c-.23-.09-.49 0-.61.22l-2 3.46c-.13.22-.07.49.12.64l2.11 1.65c-.04.32-.07.65-.07.98s.03.66.07.98l-2.11 1.65c-.19.15-.24.42-.12.64l2 3.46c.12.22.39.3.61.22l2.49-1c.52.4 1.08.73 1.69.98l.38 2.65c.03.24.24.42.49.42h4c.25 0 .46-.18.49-.42l.38-2.65c.61-.25 1.17-.59 1.69-.98l2.49 1c.23.09.49 0 .61-.22l2-3.46c.12-.22.07-.49-.12-.64l-2.11-1.65zM12 15.5c-1.93 0-3.5-1.57-3.5-3.5s1.57-3.5 3.5-3.5 3.5 1.57 3.5 3.5-1.57 3.5-3.5 3.5z"/></svg><svg viewBox="0 0 24 24" id="star" xmlns="http://www.w3.org/2000/svg"><path d="M12 17.27L18.18 21l-1.64-7.03L22 9.24l-7.19-.61L12 2 9.19 8.63 2 9.24l5.46 4.73L5.82 21z"/></svg><svg viewBox="0 0 24 24" id="star-border" xmlns="http://www.w3.org/2000/svg"><path d="M22 9.24l-7.19-.62L12 2 9.19 8.63 2 9.24l5.46 4.73L5.82 21 12 17.27 18.18 21l-1.63-7.03L22 9.24zM12 15.4l-3.76 2.27 1-4.28-3.32-2.88 4.38-.38L12 6.1l1.71 4.04 4.38.38-3.32 2.88 1 4.28L12 15.4z"/></svg><svg viewBox="0 0 24 24" id="style" xmlns="http://www.w3.org/2000/svg"><path d="M2.53 19.65l1.34.56v-9.03l-2.43 5.86c-.41 1.02.08 2.19 1.09 2.61zm19.5-3.7L17.07 3.98a2.013 2.013 0 0 0-1.81-1.23c-.26 0-.53.04-.79.15L7.1 5.95a1.999 1.999 0 0 0-1.08 2.6l4.96 11.97a1.998 1.998 0 0 0 2.6 1.08l7.36-3.05a1.994 1.994 0 0 0 1.09-2.6zM7.88 8.75c-.55 0-1-.45-1-1s.45-1 1-1 1 .45 1 1-.45 1-1 1zm-2 11c0 1.1.9 2 2 2h1.45l-3.45-8.34v6.34z"/></svg><svg viewBox="0 0 24 24" id="subscriptions" xmlns="http://www.w3.org/2000/svg"><path d="M20 8H4V6h16v2zm-2-6H6v2h12V2zm4 10v8c0 1.1-.9 2-2 2H4c-1.1 0-2-.9-2-2v-8c0-1.1.9-2 2-2h16c1.1 0 2 .9 2 2zm-6 4l-6-3.27v6.53L16 16z"/></svg><svg viewBox="0 0 24 24" id="translate" xmlns="http://www.w3.org/2000/svg"><path d="M12.87 15.07l-2.54-2.51.03-.03A17.52 17.52 0 0 0 14.07 6H17V4h-7V2H8v2H1v1.99h11.17C11.5 7.92 10.44 9.75 9 11.35 8.07 10.32 7.3 9.19 6.69 8h-2c.73 1.63 1.73 3.17 2.98 4.56l-5.09 5.02L4 19l5-5 3.11 3.11.76-2.04zM18.5 10h-2L12 22h2l1.12-3h4.75L21 22h2l-4.5-12zm-2.62 7l1.62-4.33L19.12 17h-3.24z"/></svg><svg viewBox="0 0 24 24" id="twitter-custom" xmlns="http://www.w3.org/2000/svg"><path d="M23.954 4.569a10 10 0 0 1-2.825.775 4.958 4.958 0 0 0 2.163-2.723c-.951.555-2.005.959-3.127 1.184a4.92 4.92 0 0 0-8.384 4.482C7.691 8.094 4.066 6.13 1.64 3.161a4.822 4.822 0 0 0-.666 2.475c0 1.71.87 3.213 2.188 4.096a4.904 4.904 0 0 1-2.228-.616v.061a4.923 4.923 0 0 0 3.946 4.827 4.996 4.996 0 0 1-2.212.085 4.937 4.937 0 0 0 4.604 3.417 9.868 9.868 0 0 1-6.102 2.105c-.39 0-.779-.023-1.17-.067a13.995 13.995 0 0 0 7.557 2.209c9.054 0 13.999-7.496 13.999-13.986 0-.209 0-.42-.015-.63a9.936 9.936 0 0 0 2.46-2.548l-.047-.02z"/></svg><svg viewBox="0 0 24 24" id="undo" xmlns="http://www.w3.org/2000/svg"><path d="M12.5 8c-2.65 0-5.05.99-6.9 2.6L2 7v9h9l-3.62-3.62c1.39-1.16 3.16-1.88 5.12-1.88 3.54 0 6.55 2.31 7.6 5.5l2.37-.78C21.08 11.03 17.15 8 12.5 8z"/></svg><svg viewBox="0 0 24 24" id="unfold-more" xmlns="http://www.w3.org/2000/svg"><path d="M12 5.83L15.17 9l1.41-1.41L12 3 7.41 7.59 8.83 9 12 5.83zm0 12.34L8.83 15l-1.41 1.41L12 21l4.59-4.59L15.17 15 12 18.17z"/></svg><svg viewBox="0 0 32 32" id="user-custom" xmlns="http://www.w3.org/2000/svg"><path style="text-indent:0;text-align:start;line-height:normal;text-transform:none;block-progression:tb;-inkscape-font-specification:Sans" d="M16 5c-3.854 0-7 3.146-7 7a7.026 7.026 0 0 0 3.094 5.813C8.527 19.343 6 22.88 6 27h2a7.976 7.976 0 0 1 3.813-6.813A4.538 4.538 0 0 0 16 23a4.538 4.538 0 0 0 4.188-2.813A7.976 7.976 0 0 1 24 27h2c0-4.119-2.527-7.658-6.094-9.188A7.026 7.026 0 0 0 23 12c0-3.854-3.146-7-7-7zm0 2c2.773 0 5 2.227 5 5s-2.227 5-5 5-5-2.227-5-5 2.227-5 5-5zm0 12c.82 0 1.6.116 2.344.344A2.484 2.484 0 0 1 16 21a2.484 2.484 0 0 1-2.344-1.656A7.97 7.97 0 0 1 16 19z" overflow="visible" font-family="Sans"/></svg><svg viewBox="0 0 24 24" id="videocam" xmlns="http://www.w3.org/2000/svg"><path d="M17 10.5V7c0-.55-.45-1-1-1H4c-.55 0-1 .45-1 1v10c0 .55.45 1 1 1h12c.55 0 1-.45 1-1v-3.5l4 4v-11l-4 4z"/></svg><svg viewBox="0 0 24 24" id="view-comfy" xmlns="http://www.w3.org/2000/svg"><path d="M3 9h4V5H3v4zm0 5h4v-4H3v4zm5 0h4v-4H8v4zm5 0h4v-4h-4v4zM8 9h4V5H8v4zm5-4v4h4V5h-4zm5 9h4v-4h-4v4zM3 19h4v-4H3v4zm5 0h4v-4H8v4zm5 0h4v-4h-4v4zm5 0h4v-4h-4v4zm0-14v4h4V5h-4z"/></svg><svg viewBox="0 0 24 24" id="view-list" xmlns="http://www.w3.org/2000/svg"><path d="M4 14h4v-4H4v4zm0 5h4v-4H4v4zM4 9h4V5H4v4zm5 5h12v-4H9v4zm0 5h12v-4H9v4zM9 5v4h12V5H9z"/></svg><svg viewBox="0 0 24 24" id="volume-up" xmlns="http://www.w3.org/2000/svg"><path d="M3 9v6h4l5 5V4L7 9H3zm13.5 3A4.5 4.5 0 0 0 14 7.97v8.05c1.48-.73 2.5-2.25 2.5-4.02zM14 3.23v2.06c2.89.86 5 3.54 5 6.71s-2.11 5.85-5 6.71v2.06c4.01-.91 7-4.49 7-8.77s-2.99-7.86-7-8.77z"/></svg><svg viewBox="0 0 24 24" id="warning" xmlns="http://www.w3.org/2000/svg"><path d="M1 21h22L12 2 1 21zm12-3h-2v-2h2v2zm0-4h-2v-4h2v4z"/></svg><svg viewBox="0 0 24 24" id="web" xmlns="http://www.w3.org/2000/svg"><path d="M20 4H4c-1.1 0-1.99.9-1.99 2L2 18c0 1.1.9 2 2 2h16c1.1 0 2-.9 2-2V6c0-1.1-.9-2-2-2zm-5 14H4v-4h11v4zm0-5H4V9h11v4zm5 5h-4V9h4v9z"/></svg></defs></svg>